<?xml version="1.0" encoding="UTF-8"?>
<svg version="1.1" xmlns="http://www.w3.org/2000/svg" width="83" height="63">
<path d="M0 0 C27.39 0 54.78 0 83 0 C83 20.79 83 41.58 83 63 C55.61 63 28.22 63 0 63 C0 42.21 0 21.42 0 0 Z " fill="#FBFBFB" transform="translate(0,0)"/>
<path d="M0 0 C1.65234375 1.31640625 1.65234375 1.31640625 3.96484375 3.94140625 C3.96484375 4.60140625 3.96484375 5.26140625 3.96484375 5.94140625 C4.76148438 5.51988281 5.558125 5.09835938 6.37890625 4.6640625 C7.43851563 4.11621094 8.498125 3.56835938 9.58984375 3.00390625 C10.63398437 2.45863281 11.678125 1.91335937 12.75390625 1.3515625 C17.91833006 -0.91651171 22.11980878 -1.33562216 27.65234375 -0.37109375 C28.58433594 -0.22285156 29.51632813 -0.07460938 30.4765625 0.078125 C33.50999854 1.13054159 34.41197336 2.16552356 35.96484375 4.94140625 C36.40234375 8.44140625 36.40234375 8.44140625 35.96484375 11.94140625 C34.02734375 14.25390625 34.02734375 14.25390625 31.96484375 15.94140625 C31.63484375 16.60140625 31.30484375 17.26140625 30.96484375 17.94140625 C29.97484375 17.94140625 28.98484375 17.94140625 27.96484375 17.94140625 C27.46984375 19.42640625 27.46984375 19.42640625 26.96484375 20.94140625 C25.61468516 16.89093049 26.34399377 14.14938945 26.96484375 9.94140625 C19.44001215 11.0568127 11.40125196 12.74551988 4.96484375 16.94140625 C3.56211606 19.99955655 3.56211606 19.99955655 2.96484375 22.94140625 C2.30484375 22.94140625 1.64484375 22.94140625 0.96484375 22.94140625 C0.96484375 21.95140625 0.96484375 20.96140625 0.96484375 19.94140625 C-0.37320313 20.82505859 -0.37320313 20.82505859 -1.73828125 21.7265625 C-2.92015004 22.48633529 -4.10246531 23.24541388 -5.28515625 24.00390625 C-5.87167969 24.39384766 -6.45820312 24.78378906 -7.0625 25.18554688 C-11.47687317 27.98792984 -11.47687317 27.98792984 -14.33203125 27.75 C-15.57299872 27.16082508 -16.80645699 26.55575588 -18.03515625 25.94140625 C-16.60832882 20.73824222 -13.45558306 18.3661121 -9.41015625 15.12890625 C-8.79914062 14.62681641 -8.188125 14.12472656 -7.55859375 13.60742188 C-6.05804751 12.37650504 -4.54756237 11.15772159 -3.03515625 9.94140625 C-10.40986217 9.58078493 -14.20454663 11.67097504 -20.03515625 15.94140625 C-21.63645204 17.40110836 -23.22044722 18.88005198 -24.78515625 20.37890625 C-28.59101488 23.94140625 -28.59101488 23.94140625 -32.59765625 23.94140625 C-33.40203125 23.61140625 -34.20640625 23.28140625 -35.03515625 22.94140625 C-35.71875 20.68359375 -35.71875 20.68359375 -36.03515625 17.94140625 C-29.80646963 7.17316836 -13.09376687 -6.81076933 0 0 Z " fill="#D10E19" transform="translate(43.03515625,29.05859375)"/>
<path d="M0 0 C2.5622172 1.42126827 3.981115 2.81742162 6 5 C5.0114653 7.69600373 4.34022364 8.80558649 1.8125 10.25 C-1 11 -1 11 -4.1875 10.75 C-11.83006632 11.25115189 -17.39481034 16.30769711 -22.75 21.4375 C-26.55585863 25 -26.55585863 25 -30.5625 25 C-31.366875 24.67 -32.17125 24.34 -33 24 C-33.68359375 21.7421875 -33.68359375 21.7421875 -34 19 C-27.3310944 7.47070557 -13.60035354 -2.50478353 0 0 Z " fill="#1F3E76" transform="translate(41,28)"/>
<path d="M0 0 C3 2 3 2 3.58203125 3.83984375 C3.65808594 4.53207031 3.73414063 5.22429688 3.8125 5.9375 C3.90144531 6.62714844 3.99039063 7.31679688 4.08203125 8.02734375 C4 10 4 10 2 13 C-2.11200491 14.16377498 -4.11852344 14.46887051 -7.9375 12.4375 C-10 10 -10 10 -10.5625 7 C-10 4 -10 4 -8.375 1.625 C-5.33636094 -0.45406883 -3.61550392 -0.46155369 0 0 Z " fill="#224076" transform="translate(50,14)"/>
<path d="M0 0 C1.17046875 0.19464844 2.3409375 0.38929687 3.546875 0.58984375 C4.43890625 0.74582031 5.3309375 0.90179687 6.25 1.0625 C5.92 1.7225 5.59 2.3825 5.25 3.0625 C2.23046875 3.765625 2.23046875 3.765625 -1.5625 4.3125 C-2.80644531 4.50328125 -4.05039063 4.6940625 -5.33203125 4.890625 C-8.66701527 5.05832705 -10.03695367 4.89397712 -12.75 3.0625 C-12.75 4.0525 -12.75 5.0425 -12.75 6.0625 C-14.37318979 6.42487263 -15.9986358 6.77715157 -17.625 7.125 C-18.52992187 7.32222656 -19.43484375 7.51945312 -20.3671875 7.72265625 C-22.75 8.0625 -22.75 8.0625 -24.75 7.0625 C-22.50243216 5.91167315 -20.25218252 4.76673142 -18 3.625 C-17.04867187 3.13676758 -17.04867187 3.13676758 -16.078125 2.63867188 C-9.89778861 -0.48368557 -6.85109623 -1.16468636 0 0 Z " fill="#BC2531" transform="translate(69.75,28.9375)"/>
<path d="M0 0 C0.66 0.33 1.32 0.66 2 1 C1.97679688 1.77085938 1.95359375 2.54171875 1.9296875 3.3359375 C1.91164063 4.33882812 1.89359375 5.34171875 1.875 6.375 C1.85179688 7.37273438 1.82859375 8.37046875 1.8046875 9.3984375 C1.72783152 12.16262173 1.72783152 12.16262173 4 14 C2.71086513 14.67154933 1.41859796 15.33708859 0.125 16 C-0.59429687 16.37125 -1.31359375 16.7425 -2.0546875 17.125 C-4 18 -4 18 -6 18 C-7.35386936 16.34997172 -8.68678142 14.6825613 -10 13 C-12.29629994 11.85185003 -14.07698086 11.69230191 -16.625 11.4375 C-17.44226562 11.35371094 -18.25953125 11.26992188 -19.1015625 11.18359375 C-19.72804687 11.12300781 -20.35453125 11.06242187 -21 11 C-21 10.67 -21 10.34 -21 10 C-18.03 10 -15.06 10 -12 10 C-11.67 9.34 -11.34 8.68 -11 8 C-10.01 8.66 -9.02 9.32 -8 10 C-4.36060068 9.68269476 -4.36060068 9.68269476 -1 9 C-0.27743171 4.51866426 -0.27743171 4.51866426 0 0 Z " fill="#EFEFEF" transform="translate(53,17)"/>
<path d="M0 0 C1.17046875 0.19464844 2.3409375 0.38929687 3.546875 0.58984375 C4.43890625 0.74582031 5.3309375 0.90179687 6.25 1.0625 C5.92 1.7225 5.59 2.3825 5.25 3.0625 C2.91255706 3.53056645 0.55260921 3.88919794 -1.8125 4.1875 C-3.74802734 4.43886719 -3.74802734 4.43886719 -5.72265625 4.6953125 C-7.22119141 4.87707031 -7.22119141 4.87707031 -8.75 5.0625 C-8.75 4.0725 -8.75 3.0825 -8.75 2.0625 C-9.41 1.4025 -10.07 0.7425 -10.75 0.0625 C-6.97628488 -1.2732457 -3.89168653 -0.66158671 0 0 Z " fill="#C76F72" transform="translate(69.75,28.9375)"/>
<path d="M0 0 C0.33 0.66 0.66 1.32 1 2 C-0.98 3.32 -2.96 4.64 -5 6 C-5 5.34 -5 4.68 -5 4 C-7.97 3.505 -7.97 3.505 -11 3 C-7.48550811 -0.37391222 -4.73940561 -0.27342725 0 0 Z " fill="#EFECEB" transform="translate(40,38)"/>
<path d="M0 0 C0.66 0.33 1.32 0.66 2 1 C1.96519531 2.15628906 1.96519531 2.15628906 1.9296875 3.3359375 C1.91164063 4.33882812 1.89359375 5.34171875 1.875 6.375 C1.85179687 7.37273438 1.82859375 8.37046875 1.8046875 9.3984375 C1.72783152 12.16262173 1.72783152 12.16262173 4 14 C2.35 14.33 0.7 14.66 -1 15 C-1.12375 14.360625 -1.2475 13.72125 -1.375 13.0625 C-1.58125 12.381875 -1.7875 11.70125 -2 11 C-2.66 10.67 -3.32 10.34 -4 10 C-3.01 9.67 -2.02 9.34 -1 9 C-0.27743171 4.51866426 -0.27743171 4.51866426 0 0 Z " fill="#D7D9DE" transform="translate(53,17)"/>
<path d="M0 0 C0.33 0 0.66 0 1 0 C1.3125 2.3125 1.3125 2.3125 1 5 C-1.8190166 7.19256847 -4.49957156 8.35177251 -8 9 C-6.99796679 5.99390037 -6.39971554 4.93823179 -4 3 C-3.01 3 -2.02 3 -1 3 C-0.67 2.01 -0.34 1.02 0 0 Z " fill="#ECDCDB" transform="translate(75,44)"/>
<path d="M0 0 C1.32 0.33 2.64 0.66 4 1 C3.67 2.65 3.34 4.3 3 6 C2.01 6 1.02 6 0 6 C-0.33 6.99 -0.66 7.98 -1 9 C-2.25541557 5.23375329 -1.37061958 3.62811066 0 0 Z " fill="#CA272E" transform="translate(71,41)"/>
<path d="M0 0 C2.97 0 5.94 0 9 0 C8.01 0.33 7.02 0.66 6 1 C6 1.66 6 2.32 6 3 C4.02 3 2.04 3 0 3 C0 2.01 0 1.02 0 0 Z " fill="#13346E" transform="translate(31,28)"/>
<path d="M0 0 C0.66 0.33 1.32 0.66 2 1 C2.25 4.3125 2.25 4.3125 2 8 C0 9.9375 0 9.9375 -2 11 C-2 9.35 -2 7.7 -2 6 C-1.34 6 -0.68 6 0 6 C0 4.02 0 2.04 0 0 Z " fill="#C9151F" transform="translate(77,33)"/>
<path d="M0 0 C0.90105469 0.01804687 1.80210938 0.03609375 2.73046875 0.0546875 C3.41753906 0.07789062 4.10460937 0.10109375 4.8125 0.125 C4.8125 0.455 4.8125 0.785 4.8125 1.125 C-3.61607143 3.55357143 -3.61607143 3.55357143 -8.1875 2.125 C-4.87379 -0.08414 -3.8428979 -0.09981553 0 0 Z " fill="#BE343F" transform="translate(62.1875,29.875)"/>
<path d="M0 0 C1.32 0.99 2.64 1.98 4 3 C0.87819599 3.96661363 -1.52083795 3.98988909 -4.75 3.5625 C-5.94882812 3.40974609 -5.94882812 3.40974609 -7.171875 3.25390625 C-7.77515625 3.17011719 -8.3784375 3.08632813 -9 3 C-9 2.67 -9 2.34 -9 2 C-6.03 2 -3.06 2 0 2 C0 1.34 0 0.68 0 0 Z " fill="#AEB8C6" transform="translate(41,25)"/>
</svg>
